# xmcd
#
# Track frame offsets:
# 182
# 29417
# 44612
# 72520
# 101262
# 120955
# 130762
# 155412
# 180455
# 192900
# 221770
# 238770
#
# Disc length: 3643 seconds
#
#
# Revision: 0
# Processed by: cddbd v1.5.1PL2 Copyright (c) Steve Scherf et al.
# Submitted via: FreeRIP 2.942 
#
DISCID=a50e390c
DTITLE=Beau Jocque And The Zydeco Hi-Rollers - Pick Up On This
DYEAR=1994
DGENRE=Polka
TTITLE0=Give It To Me
TTITLE1=Gardez Donci (Look At That)
TTITLE2=Boggie Chillen
TTITLE3=Mardi Gras Blues
TTITLE4=Comin' In
TTITLE5=Don't Tell Your Mama, Don't Tell Your Baba
TTITLE6=Yesterday
TTITLE7=Do Right Sometime
TTITLE8=Hucklebuck
TTITLE9=Pick Up On This
TTITLE10=Chere Mignone (Dear Cute One)
TTITLE11=Hi-Rollers Theme/Low Rider
EXTD=
EXTT0=
EXTT1=
EXTT2=
EXTT3=
EXTT4=
EXTT5=
EXTT6=
EXTT7=
EXTT8=
EXTT9=
EXTT10=
EXTT11=
PLAYORDER=
